<svg width="752" height="400" viewBox="0 0 752 400" fill="none" xmlns="http://www.w3.org/2000/svg">
<g clip-path="url(#clip0_60_4)">
<path d="M143.295 114.085C143.295 99.5795 148.49 87.1321 158.879 76.7429C169.268 66.3537 181.716 61.1591 196.222 61.1591C210.727 61.1591 223.175 66.3537 233.564 76.7429C243.953 87.1321 249.148 99.5795 249.148 114.085C249.148 128.591 243.953 141.038 233.564 151.428C223.175 161.817 210.727 167.011 196.222 167.011C186.616 167.011 177.795 164.561 169.759 159.661C161.722 154.956 155.253 148.585 150.352 140.548C145.648 132.707 143.295 123.886 143.295 114.085ZM478.494 114.085C478.494 99.5795 483.689 87.1321 494.078 76.7429C504.467 66.3537 516.915 61.1591 531.42 61.1591C545.926 61.1591 558.374 66.3537 568.763 76.7429C579.152 87.1321 584.347 99.5795 584.347 114.085C584.347 128.591 579.152 141.038 568.763 151.428C558.374 161.817 545.926 167.011 531.42 167.011C521.815 167.011 512.994 164.561 504.957 159.661C496.92 154.956 490.452 148.585 485.551 140.548C480.847 132.707 478.494 123.886 478.494 114.085Z" fill="black" fill-opacity="0.1"/>
<path d="M376.045 227.21C450.142 227.21 518.26 236.815 580.399 256.026C642.734 275.432 700.071 303.071 752.409 338.943V400.102C733.003 385.989 709.088 372.757 680.665 360.408C652.438 348.254 621.368 337.571 587.456 328.358C553.74 319.145 518.848 311.892 482.78 306.599C446.712 301.503 411.134 298.955 376.045 298.955C329.392 298.955 282.053 303.463 234.027 312.48C186.001 321.497 141.406 333.651 100.241 348.94C59.077 364.23 25.557 381.284 -0.318207 400.102V338.943C52.02 303.071 109.259 275.432 171.398 256.026C233.733 236.815 301.949 227.21 376.045 227.21Z" fill="black" fill-opacity="0.1"/>
<path d="M55 38.5C157.4 53.7 221.333 28.5 240.5 14" stroke="black" stroke-opacity="0.1" stroke-width="25"/>
<path d="M661 38.3236C558.324 53.4142 494.218 28.3956 475 14" stroke="black" stroke-opacity="0.1" stroke-width="25"/>
</g>
<defs>
<clipPath id="clip0_60_4">
<rect width="752" height="400" fill="white"/>
</clipPath>
</defs>
</svg>
